<svg xmlns="http://www.w3.org/2000/svg" width="30" height="30" viewBox="0 0 30 30"><defs><style>.a{fill:#747f92;}.b{fill:#fafbfb;}</style></defs><circle class="a" cx="15" cy="15" r="15" transform="translate(0)"/><g transform="translate(5.462 5.474)"><path class="b" d="M29.964,20.472A9.526,9.526,0,1,0,39.5,30a9.543,9.543,0,0,0-9.539-9.526Zm6.276,4.5a8,8,0,0,1,1.78,4.907,19.9,19.9,0,0,0-3.727-.36,15.065,15.065,0,0,0-1.837.107c-.053-.128-.105-.256-.161-.385-.162-.38-.336-.758-.517-1.13a10.976,10.976,0,0,0,4.462-3.139Zm-6.276-3a8.03,8.03,0,0,1,5.309,2,9.2,9.2,0,0,1-4.162,2.857,43.558,43.558,0,0,0-2.964-4.648,8.044,8.044,0,0,1,1.817-.207Zm-3.461.781a52.046,52.046,0,0,1,2.949,4.59,30.5,30.5,0,0,1-7.284.97h-.079a8.08,8.08,0,0,1,4.414-5.56Zm-4.6,7.267q0-.1,0-.2h.212a30.165,30.165,0,0,0,8.048-1.144c.217.425.424.856.616,1.286-.09.026-.179.052-.268.081a12.886,12.886,0,0,0-6.582,5.307,8.007,8.007,0,0,1-2.029-5.332Zm8.058,8.047a8.025,8.025,0,0,1-4.915-1.675,11.132,11.132,0,0,1,6.315-5l.009,0a33.537,33.537,0,0,1,1.7,6.049,8.014,8.014,0,0,1-3.113.625Zm4.564-1.418a35.2,35.2,0,0,0-1.544-5.651,10.567,10.567,0,0,1,1.622-.122,11.974,11.974,0,0,1,3.308.462,8.062,8.062,0,0,1-3.385,5.31Z" transform="translate(-20.426 -20.472)"/></g></svg>